<svg width="24" height="24" viewBox="0 0 24 24" fill="none" xmlns="http://www.w3.org/2000/svg">
<path fill-rule="evenodd" clip-rule="evenodd" d="M5.64434 5.64437C5.23176 6.05695 4.99997 6.61653 4.99997 7.2V8.2C4.99964 8.7809 4.76957 9.33809 4.35997 9.75L3.65997 10.45C3.45437 10.6545 3.29121 10.8975 3.17988 11.1652C3.06855 11.433 3.01123 11.7201 3.01123 12.01C3.01123 12.3 3.06855 12.587 3.17988 12.8548C3.29121 13.1225 3.45437 13.3656 3.65997 13.57L4.35997 14.27C4.76957 14.6819 4.99964 15.2391 4.99997 15.82V16.82C4.99997 17.4035 5.23176 17.9631 5.64434 18.3756C6.05692 18.7882 6.6165 19.02 7.19997 19.02H8.19997C8.78087 19.0203 9.33806 19.2504 9.74997 19.66L10.45 20.36C10.6544 20.5656 10.8975 20.7288 11.1652 20.8401C11.4329 20.9514 11.72 21.0087 12.01 21.0087C12.2999 21.0087 12.587 20.9514 12.8547 20.8401C13.1225 20.7288 13.3655 20.5656 13.57 20.36L14.27 19.66C14.6819 19.2504 15.2391 19.0203 15.82 19.02H16.82C17.4034 19.02 17.963 18.7882 18.3756 18.3756C18.7882 17.9631 19.02 17.4035 19.02 16.82V15.82C19.0203 15.2391 19.2504 14.6819 19.66 14.27L20.36 13.57C20.5656 13.3656 20.7287 13.1225 20.8401 12.8548C20.9514 12.587 21.0087 12.3 21.0087 12.01C21.0087 11.7201 20.9514 11.433 20.8401 11.1652C20.7287 10.8975 20.5656 10.6545 20.36 10.45L19.66 9.75C19.2504 9.33809 19.0203 8.7809 19.02 8.2V7.2C19.02 6.61653 18.7882 6.05695 18.3756 5.64437C17.963 5.23179 17.4034 5 16.82 5H15.82C15.2391 4.99967 14.6819 4.76961 14.27 4.36L13.57 3.66C13.3655 3.4544 13.1225 3.29125 12.8547 3.17991C12.587 3.06858 12.2999 3.01126 12.01 3.01126C11.72 3.01126 11.4329 3.06858 11.1652 3.17991C10.8975 3.29125 10.6544 3.4544 10.45 3.66L9.74997 4.36C9.33806 4.76961 8.78087 4.99967 8.19997 5H7.19997C6.6165 5 6.05692 5.23179 5.64434 5.64437ZM15.7071 9.70711C16.0976 9.31658 16.0976 8.68342 15.7071 8.29289C15.3166 7.90237 14.6834 7.90237 14.2929 8.29289L8.29289 14.2929C7.90237 14.6834 7.90237 15.3166 8.29289 15.7071C8.68342 16.0976 9.31658 16.0976 9.70711 15.7071L15.7071 9.70711ZM9.5 11C10.3284 11 11 10.3284 11 9.5C11 8.67157 10.3284 8 9.5 8C8.67157 8 8 8.67157 8 9.5C8 10.3284 8.67157 11 9.5 11ZM16 14.5C16 15.3284 15.3284 16 14.5 16C13.6716 16 13 15.3284 13 14.5C13 13.6716 13.6716 13 14.5 13C15.3284 13 16 13.6716 16 14.5Z" fill="#E94B64"/>
</svg>
